<svg width="442" height="178" viewBox="0 0 442 178" fill="none" xmlns="http://www.w3.org/2000/svg">
<path d="M263.414 134.434V118.366H266.287L266.782 134.434H263.414ZM276.665 134.434H275.129L264.628 120.881L264.702 118.366H267.005L276.64 130.649L276.665 134.434ZM278.2 118.366V134.434H275.327L274.807 118.366H278.2Z" fill="#F3EFEB"/>
<path d="M249.028 134.8C247.41 134.8 245.965 134.458 244.694 133.774C243.439 133.074 242.457 132.106 241.747 130.869C241.037 129.631 240.682 128.223 240.682 126.644C240.682 125.309 240.913 124.113 241.375 123.055C241.837 121.996 242.481 121.093 243.307 120.344C244.133 119.595 245.09 119.017 246.18 118.61C247.27 118.203 248.442 118 249.697 118C251.315 118 252.743 118.35 253.982 119.05C255.237 119.734 256.219 120.694 256.929 121.931C257.639 123.152 257.994 124.569 257.994 126.18C257.994 127.499 257.763 128.687 257.3 129.745C256.838 130.803 256.194 131.715 255.369 132.48C254.56 133.229 253.61 133.807 252.52 134.214C251.447 134.605 250.283 134.8 249.028 134.8ZM249.672 132.187C250.531 132.187 251.257 131.976 251.852 131.552C252.463 131.113 252.925 130.494 253.239 129.696C253.552 128.882 253.709 127.922 253.709 126.815C253.709 125.464 253.503 124.332 253.09 123.421C252.694 122.509 252.149 121.817 251.455 121.345C250.762 120.873 249.969 120.637 249.078 120.637C248.252 120.637 247.534 120.849 246.923 121.272C246.329 121.679 245.866 122.289 245.536 123.103C245.206 123.917 245.041 124.894 245.041 126.034C245.041 127.352 245.247 128.476 245.66 129.403C246.073 130.315 246.626 131.007 247.319 131.479C248.029 131.951 248.814 132.187 249.672 132.187Z" fill="#F3EFEB"/>
<path d="M221.188 134.434V118.366H226.884C228.205 118.366 229.435 118.529 230.574 118.855C231.714 119.164 232.704 119.636 233.546 120.271C234.388 120.906 235.041 121.703 235.503 122.664C235.982 123.608 236.221 124.707 236.221 125.96C236.221 127.084 236.023 128.158 235.627 129.184C235.247 130.193 234.661 131.097 233.868 131.894C233.076 132.676 232.069 133.294 230.847 133.75C229.625 134.206 228.18 134.434 226.512 134.434H221.188ZM225.026 131.894H226.859C227.899 131.894 228.758 131.756 229.435 131.479C230.128 131.186 230.673 130.795 231.07 130.307C231.466 129.802 231.738 129.233 231.887 128.598C232.052 127.963 232.135 127.287 232.135 126.571C232.135 125.562 231.961 124.634 231.615 123.787C231.268 122.941 230.69 122.257 229.881 121.736C229.072 121.215 227.974 120.955 226.587 120.955H225.026V131.894Z" fill="#F3EFEB"/>
<path d="M200.002 134.434V118.366H202.875L203.37 134.434H200.002ZM213.252 134.434H211.717L201.216 120.881L201.29 118.366H203.593L213.228 130.649L213.252 134.434ZM214.788 118.366V134.434H211.915L211.395 118.366H214.788Z" fill="#F3EFEB"/>
<path d="M185.616 134.8C183.998 134.8 182.554 134.458 181.282 133.774C180.027 133.074 179.045 132.106 178.335 130.869C177.625 129.631 177.27 128.223 177.27 126.644C177.27 125.309 177.501 124.113 177.963 123.055C178.426 121.996 179.07 121.093 179.895 120.344C180.721 119.595 181.678 119.017 182.768 118.61C183.858 118.203 185.03 118 186.285 118C187.903 118 189.332 118.35 190.57 119.05C191.825 119.734 192.807 120.694 193.517 121.931C194.227 123.152 194.582 124.569 194.582 126.18C194.582 127.499 194.351 128.687 193.889 129.745C193.426 130.803 192.782 131.715 191.957 132.48C191.148 133.229 190.198 133.807 189.109 134.214C188.035 134.605 186.871 134.8 185.616 134.8ZM186.26 132.187C187.119 132.187 187.846 131.976 188.44 131.552C189.051 131.113 189.513 130.494 189.827 129.696C190.141 128.882 190.298 127.922 190.298 126.815C190.298 125.464 190.091 124.332 189.678 123.421C189.282 122.509 188.737 121.817 188.044 121.345C187.35 120.873 186.558 120.637 185.666 120.637C184.84 120.637 184.122 120.849 183.511 121.272C182.917 121.679 182.455 122.289 182.124 123.103C181.794 123.917 181.629 124.894 181.629 126.034C181.629 127.352 181.835 128.476 182.248 129.403C182.661 130.315 183.214 131.007 183.908 131.479C184.618 131.951 185.402 132.187 186.26 132.187Z" fill="#F3EFEB"/>
<path d="M163 134.434V118.366H166.839V134.434H163ZM164.189 134.434V131.577H174.195V134.434H164.189Z" fill="#F3EFEB"/>
<path d="M89.1458 81.5625C90.5989 81.5625 91.6067 81.4219 92.1692 81.1406L92.3098 81.1758L91.9583 90H65.6263V42.9961C66.2591 43.043 66.9622 43.0781 67.7356 43.1016L70.1966 43.1719C71.8372 43.2188 73.6184 43.2422 75.5403 43.2422C80.9075 43.2422 86.2161 43.1484 91.4661 42.9609C91.2083 45.0234 91.0794 47.7773 91.0794 51.2227C91.0794 51.5977 91.1028 51.8789 91.1497 52.0664L91.0794 52.1719C89.8606 51.8203 88.1263 51.6445 85.8763 51.6445H74.802V60.6094H83.1341C85.7122 60.6094 87.2591 60.5391 87.7747 60.3984L87.8802 69.082C86.7552 68.9648 85.302 68.9062 83.5208 68.9062H74.802V81.5625H89.1458ZM127.46 90.1406C126.71 90.0469 125.48 90 123.769 90H119.902C119.269 90 118.695 90.0234 118.179 90.0703L118.144 90C118.238 89.8359 118.285 89.6484 118.285 89.4375C118.285 89.2266 118.261 89.0039 118.214 88.7695C118.191 88.5352 118.097 88.1133 117.933 87.5039C117.769 86.8945 117.511 86.0156 117.16 84.8672L115.683 80.1562L102.605 43.1016C104.058 43.1953 105.91 43.2422 108.16 43.2422C110.41 43.2422 111.851 43.1484 112.484 42.9609L123.066 74.918L132.347 43.1016C133.753 43.1953 135.488 43.2422 137.55 43.2422C140.363 43.2422 142.003 43.1484 142.472 42.9609L129.64 80.0508C129.64 80.0508 129.23 81.4219 128.41 84.1641C127.73 86.5078 127.39 88.0312 127.39 88.7344C127.39 89.4141 127.437 89.8477 127.531 90.0352L127.46 90.1406ZM158.603 90.2812C156.588 90.0938 154.232 90 151.537 90H148.76L164.053 47.1445C164.732 45.2227 165.072 44.1094 165.072 43.8047C165.072 43.4766 165.06 43.2773 165.037 43.207L165.072 43.1367C166.595 43.207 168.213 43.2422 169.924 43.2422C171.33 43.2422 173.017 43.2188 174.986 43.1719L175.021 43.2422C174.974 43.3359 174.951 43.4648 174.951 43.6289C174.951 44.0742 175.303 45.2578 176.006 47.1797L191.615 90.1055C191.146 90.082 190.595 90.0703 189.963 90.0703C189.963 90.0703 189.353 90.0469 188.135 90C187.549 90 187.021 90 186.553 90H181.103L177.799 79.875H161.908L158.603 90.2812ZM175.056 71.4375L169.748 55.0898L164.58 71.4375H175.056ZM231.758 85.8516C227.891 89.2031 223.215 90.8789 217.73 90.8789C212.34 90.8789 207.887 89.2734 204.371 86.0625C200.926 82.9453 199.203 79.0781 199.203 74.4609C199.203 70.2891 201.008 66.8203 204.617 64.0547C205.695 63.2109 206.855 62.5078 208.098 61.9453C206.762 59.6953 206.094 57.4922 206.094 55.3359C206.094 53.1797 206.445 51.3398 207.148 49.8164C207.852 48.293 208.824 46.9805 210.066 45.8789C212.715 43.5352 216.113 42.3633 220.262 42.3633C223.215 42.3633 225.922 43.0664 228.383 44.4727C228.266 46.4648 228.207 48 228.207 49.0781C228.207 50.5547 228.219 51.4805 228.242 51.8555C228.289 52.2305 228.301 52.5 228.277 52.6641C228.277 52.8047 228.266 52.9219 228.242 53.0156C228.148 53.1562 228.125 53.3203 228.172 53.5078L227.996 53.7539C227.059 52.3477 225.242 51.3398 222.547 50.7305C221.727 50.543 220.672 50.4492 219.383 50.4492C218.094 50.4492 217.027 50.8359 216.184 51.6094C215.363 52.3828 214.953 53.3555 214.953 54.5273C214.953 56.543 216.383 59.1094 219.242 62.2266C220.133 63.2109 221.211 64.3242 222.477 65.5664L230.738 73.125C231.488 71.0859 231.863 68.9414 231.863 66.6914C231.863 65.3086 231.512 64.1602 230.809 63.2461C230.645 63.0352 230.516 62.8945 230.422 62.8242V62.4023L235.52 64.4414C236.504 64.8398 237.301 65.1445 237.91 65.3555C238.52 65.5664 238.977 65.7422 239.281 65.8828C239.82 66.1172 240.09 66.375 240.09 66.6562C240.09 70.875 239.141 74.8828 237.242 78.6797C239.633 80.6484 241.168 81.7617 241.848 82.0195C242.527 82.2773 243.043 82.4297 243.395 82.4766C244.52 82.6172 245.176 82.5703 245.363 82.3359L245.539 82.5469L241.918 90.457C241.52 90.7383 240.84 90.8789 239.879 90.8789C238.402 90.8789 235.695 89.2031 231.758 85.8516ZM210.945 79.9102C212.891 81.5977 215.223 82.4414 217.941 82.4414C220.684 82.4414 223.145 81.6914 225.324 80.1914L221.527 76.7109C217.473 73.0312 214.25 69.8203 211.859 67.0781C209.305 68.9297 208.027 71.1094 208.027 73.6172C208.027 76.125 209 78.2227 210.945 79.9102ZM263.639 90C260.194 90 257.908 90.0703 256.783 90.2109V43.0312C257.346 43.1719 258.506 43.2422 260.264 43.2422C262.045 43.2422 264.108 43.1953 266.451 43.1016V81.5625H273.729C275.838 81.5625 277.526 81.4922 278.791 81.3516C278.627 86.8359 278.545 89.6836 278.545 89.8945V90.2461C276.248 90.082 272.393 90 266.979 90H263.639ZM316.157 81.5625C317.61 81.5625 318.618 81.4219 319.18 81.1406L319.321 81.1758L318.969 90H292.637V42.9961C293.27 43.043 293.973 43.0781 294.747 43.1016L297.208 43.1719C298.848 43.2188 300.629 43.2422 302.551 43.2422C307.918 43.2422 313.227 43.1484 318.477 42.9609C318.219 45.0234 318.09 47.7773 318.09 51.2227C318.09 51.5977 318.114 51.8789 318.161 52.0664L318.09 52.1719C316.872 51.8203 315.137 51.6445 312.887 51.6445H301.813V60.6094H310.145C312.723 60.6094 314.27 60.5391 314.786 60.3984L314.891 69.082C313.766 68.9648 312.313 68.9062 310.532 68.9062H301.813V81.5625H316.157ZM338.3 84.4453C336.167 82.4062 334.479 79.957 333.237 77.0977C332.018 74.2383 331.409 71.1094 331.409 67.7109C331.409 64.2891 331.983 61.0547 333.132 58.0078C334.28 54.9609 335.921 52.2773 338.053 49.957C340.186 47.6367 342.764 45.7969 345.788 44.4375C348.811 43.0547 352.198 42.3633 355.948 42.3633C362.417 42.3633 367.866 44.4023 372.296 48.4805C377.03 52.8398 379.397 58.7227 379.397 66.1289C379.397 73.3008 376.96 79.2656 372.085 84.0234C369.085 86.9531 365.51 88.9688 361.362 90.0703C359.323 90.6094 356.932 90.8789 354.19 90.8789C351.471 90.8789 348.671 90.3164 345.788 89.1914C342.928 88.0664 340.432 86.4844 338.3 84.4453ZM341.182 67.2188C341.182 69.3984 341.546 71.4023 342.272 73.2305C342.999 75.0586 344.007 76.6289 345.296 77.9414C348.038 80.707 351.565 82.0898 355.878 82.0898C359.979 82.0898 363.272 80.7656 365.757 78.1172C368.288 75.375 369.553 71.6367 369.553 66.9023C369.553 62.4492 368.346 58.7344 365.932 55.7578C363.331 52.5703 359.768 50.9766 355.245 50.9766C350.862 50.9766 347.382 52.5938 344.803 55.8281C342.389 58.8516 341.182 62.6484 341.182 67.2188Z" fill="#F3EFEB"/>
</svg>
